<svg width="175" height="60" viewBox="0 0 175 60" fill="none" xmlns="http://www.w3.org/2000/svg">
<rect x="0.5" y="0.5" width="174" height="59" stroke="#D4AF37"/>
<path d="M20.0488 33.0479C19.8848 33.0479 19.6774 33.0456 19.4268 33.041C19.1807 33.0365 18.9346 33.0296 18.6885 33.0205C18.4424 33.016 18.235 33.0114 18.0664 33.0068C17.9023 33.0023 17.8203 33 17.8203 33C17.8568 32.7949 17.8773 32.4827 17.8818 32.0635C17.8864 31.6442 17.891 31.1794 17.8955 30.6689V27.873C17.8955 27.3717 17.891 26.9046 17.8818 26.4717C17.8773 26.0387 17.8568 25.7197 17.8203 25.5146C17.9661 25.5055 18.1781 25.4987 18.4561 25.4941C18.7386 25.485 19.0348 25.4782 19.3447 25.4736C19.6546 25.4691 19.9235 25.4668 20.1514 25.4668C20.3701 25.4668 20.6322 25.4919 20.9375 25.542C21.2428 25.5876 21.5573 25.681 21.8809 25.8223C22.209 25.959 22.512 26.1663 22.79 26.4443C23.0726 26.7178 23.3005 27.0801 23.4736 27.5312C23.6514 27.9779 23.7402 28.5361 23.7402 29.2061C23.7402 29.9717 23.6195 30.6029 23.3779 31.0996C23.141 31.5964 22.8333 31.9883 22.4551 32.2754C22.0814 32.5579 21.6803 32.7585 21.252 32.877C20.8281 32.9909 20.4271 33.0479 20.0488 33.0479ZM19.9941 32.207C20.4544 32.207 20.8942 32.1136 21.3135 31.9268C21.7327 31.7354 22.0745 31.4277 22.3389 31.0039C22.6077 30.5755 22.7422 30.0104 22.7422 29.3086C22.7422 28.543 22.6169 27.9414 22.3662 27.5039C22.1201 27.0618 21.7897 26.7497 21.375 26.5674C20.9648 26.3805 20.5137 26.2871 20.0215 26.2871C19.8529 26.2871 19.6501 26.2894 19.4131 26.2939C19.1807 26.2985 18.9984 26.3053 18.8662 26.3145V32.1592C18.9893 32.1683 19.1465 32.1797 19.3379 32.1934C19.5339 32.2025 19.7526 32.207 19.9941 32.207ZM27.9922 33.123C27.4453 33.123 26.9303 32.9772 26.4473 32.6855C25.9688 32.3893 25.5814 31.9587 25.2852 31.3936C24.9889 30.8239 24.8408 30.1289 24.8408 29.3086C24.8408 28.4883 24.9958 27.7865 25.3057 27.2031C25.6201 26.6198 26.0257 26.1732 26.5225 25.8633C27.0192 25.5488 27.5433 25.3916 28.0947 25.3916C28.6416 25.3916 29.152 25.5397 29.626 25.8359C30.1045 26.1276 30.4896 26.5583 30.7812 27.1279C31.0775 27.693 31.2256 28.3857 31.2256 29.2061C31.2256 30.0264 31.0684 30.7305 30.7539 31.3184C30.444 31.9017 30.043 32.3483 29.5508 32.6582C29.0586 32.9681 28.5391 33.123 27.9922 33.123ZM28.0469 32.2344C28.6712 32.2344 29.1885 31.9792 29.5986 31.4688C30.0133 30.9538 30.2207 30.2428 30.2207 29.3359C30.2207 28.388 30.0202 27.6429 29.6191 27.1006C29.2227 26.5583 28.6986 26.2871 28.0469 26.2871C27.3997 26.2871 26.8688 26.5492 26.4541 27.0732C26.0439 27.5928 25.8389 28.2969 25.8389 29.1855C25.8389 30.1198 26.0394 30.8626 26.4404 31.4141C26.846 31.9609 27.3815 32.2344 28.0469 32.2344ZM38.8682 33L36.9199 26.3145L36.6396 25.5146H37.5898L39.5381 32.3369L39.4355 33H38.8682ZM34.2061 33L32.6406 27.3877C32.5039 26.9001 32.39 26.5173 32.2988 26.2393C32.2122 25.9613 32.1302 25.7197 32.0527 25.5146H33.1807L34.8691 32.3369L34.8213 33H34.2061ZM34.8213 33L34.7188 32.3369L36.6396 25.5146H37.5898L37.3027 26.3145L35.3545 33H34.8213ZM39.4355 33L39.3809 32.3369L41.0488 25.5146H42.1768C42.0947 25.7243 42.0104 25.9658 41.9238 26.2393C41.8372 26.5081 41.7256 26.891 41.5889 27.3877L40.0234 33H39.4355ZM48.3291 33L43.5371 26.0547L44.2549 25.5146L49.0469 32.4873L48.3291 33ZM43.332 33C43.3685 32.7949 43.389 32.4987 43.3936 32.1113C43.4027 31.724 43.4072 31.2773 43.4072 30.7715V27.75C43.4072 27.2441 43.4027 26.7975 43.3936 26.4102C43.389 26.0182 43.3685 25.7197 43.332 25.5146H44.2549V33H43.332ZM48.3291 33V25.5146H49.252C49.2155 25.7197 49.1927 26.0182 49.1836 26.4102C49.179 26.7975 49.1768 27.2441 49.1768 27.75V33H48.3291ZM51.0293 33C51.0658 32.7949 51.0863 32.4987 51.0908 32.1113C51.0999 31.724 51.1045 31.2773 51.1045 30.7715V27.75C51.1045 27.2441 51.0999 26.7975 51.0908 26.4102C51.0863 26.0182 51.0658 25.7197 51.0293 25.5146H52.0752V32.1592H53.2236C53.7295 32.1592 54.1761 32.1546 54.5635 32.1455C54.9554 32.1364 55.2539 32.1136 55.459 32.0771V33H51.0293ZM59.3828 33.123C58.8359 33.123 58.321 32.9772 57.8379 32.6855C57.3594 32.3893 56.972 31.9587 56.6758 31.3936C56.3796 30.8239 56.2314 30.1289 56.2314 29.3086C56.2314 28.4883 56.3864 27.7865 56.6963 27.2031C57.0107 26.6198 57.4163 26.1732 57.9131 25.8633C58.4098 25.5488 58.9339 25.3916 59.4854 25.3916C60.0322 25.3916 60.5426 25.5397 61.0166 25.8359C61.4951 26.1276 61.8802 26.5583 62.1719 27.1279C62.4681 27.693 62.6162 28.3857 62.6162 29.2061C62.6162 30.0264 62.459 30.7305 62.1445 31.3184C61.8346 31.9017 61.4336 32.3483 60.9414 32.6582C60.4492 32.9681 59.9297 33.123 59.3828 33.123ZM59.4375 32.2344C60.0618 32.2344 60.5791 31.9792 60.9893 31.4688C61.404 30.9538 61.6113 30.2428 61.6113 29.3359C61.6113 28.388 61.4108 27.6429 61.0098 27.1006C60.6133 26.5583 60.0892 26.2871 59.4375 26.2871C58.7904 26.2871 58.2594 26.5492 57.8447 27.0732C57.4346 27.5928 57.2295 28.2969 57.2295 29.1855C57.2295 30.1198 57.43 30.8626 57.8311 31.4141C58.2367 31.9609 58.7721 32.2344 59.4375 32.2344ZM63.4434 33C63.5345 32.7949 63.6325 32.5602 63.7373 32.2959C63.8467 32.0316 63.988 31.6602 64.1611 31.1816L66.2119 25.5146H67.3125L69.3633 31.1816C69.5365 31.6602 69.6777 32.0316 69.7871 32.2959C69.8965 32.5602 69.9945 32.7949 70.0811 33H69.0283L68.3311 31.0312H65.1797L64.4893 33H63.4434ZM65.4531 30.2314H68.0576L66.7451 26.5195L65.4531 30.2314ZM73.4375 33.0479C73.2734 33.0479 73.0661 33.0456 72.8154 33.041C72.5693 33.0365 72.3232 33.0296 72.0771 33.0205C71.8311 33.016 71.6237 33.0114 71.4551 33.0068C71.291 33.0023 71.209 33 71.209 33C71.2454 32.7949 71.266 32.4827 71.2705 32.0635C71.2751 31.6442 71.2796 31.1794 71.2842 30.6689V27.873C71.2842 27.3717 71.2796 26.9046 71.2705 26.4717C71.266 26.0387 71.2454 25.7197 71.209 25.5146C71.3548 25.5055 71.5667 25.4987 71.8447 25.4941C72.1273 25.485 72.4235 25.4782 72.7334 25.4736C73.0433 25.4691 73.3122 25.4668 73.54 25.4668C73.7588 25.4668 74.0208 25.4919 74.3262 25.542C74.6315 25.5876 74.946 25.681 75.2695 25.8223C75.5977 25.959 75.9007 26.1663 76.1787 26.4443C76.4613 26.7178 76.6891 27.0801 76.8623 27.5312C77.04 27.9779 77.1289 28.5361 77.1289 29.2061C77.1289 29.9717 77.0081 30.6029 76.7666 31.0996C76.5296 31.5964 76.222 31.9883 75.8438 32.2754C75.4701 32.5579 75.069 32.7585 74.6406 32.877C74.2168 32.9909 73.8158 33.0479 73.4375 33.0479ZM73.3828 32.207C73.8431 32.207 74.2829 32.1136 74.7021 31.9268C75.1214 31.7354 75.4632 31.4277 75.7275 31.0039C75.9964 30.5755 76.1309 30.0104 76.1309 29.3086C76.1309 28.543 76.0055 27.9414 75.7549 27.5039C75.5088 27.0618 75.1784 26.7497 74.7637 26.5674C74.3535 26.3805 73.9023 26.2871 73.4102 26.2871C73.2415 26.2871 73.0387 26.2894 72.8018 26.2939C72.5693 26.2985 72.387 26.3053 72.2549 26.3145V32.1592C72.3779 32.1683 72.5352 32.1797 72.7266 32.1934C72.9225 32.2025 73.1413 32.207 73.3828 32.207ZM84.8945 33L82.3037 25.5146H83.1787L85.3799 31.9541L87.6152 25.5146H88.4697L85.8926 33H84.8945ZM81.668 33C81.6862 32.8542 81.7067 32.6126 81.7295 32.2754C81.7523 31.9336 81.7751 31.5348 81.7979 31.0791C81.8206 30.6188 81.8411 30.1357 81.8594 29.6299C81.8822 29.124 81.9027 28.6273 81.9209 28.1396C81.9437 27.652 81.9619 27.2122 81.9756 26.8203C81.9893 26.4238 82.0007 26.1071 82.0098 25.8701C82.0189 25.6331 82.0234 25.5146 82.0234 25.5146H82.9189L82.7754 26.8271L82.6113 33H81.668ZM88.1484 33L88.0049 26.8271L87.8408 25.5146H88.7432C88.7432 25.5146 88.7454 25.6331 88.75 25.8701C88.7591 26.1071 88.7705 26.4238 88.7842 26.8203C88.7979 27.2122 88.8138 27.652 88.832 28.1396C88.8548 28.6273 88.8753 29.124 88.8936 29.6299C88.9163 30.1357 88.9391 30.6188 88.9619 31.0791C88.9847 31.5348 89.0075 31.9336 89.0303 32.2754C89.0531 32.6126 89.0758 32.8542 89.0986 33H88.1484ZM92.8174 33C92.8538 32.7949 92.8743 32.4987 92.8789 32.1113C92.888 31.724 92.8926 31.2773 92.8926 30.7715V29.8691L91.5322 27.5449C91.3363 27.2077 91.1403 26.8818 90.9443 26.5674C90.7529 26.2484 90.5137 25.8975 90.2266 25.5146H91.4023L93.4326 28.9053L95.3535 25.5146H96.5293C96.2285 25.9476 95.9893 26.3099 95.8115 26.6016C95.6338 26.8932 95.4469 27.2077 95.251 27.5449L93.8633 29.9102V30.7715C93.8633 31.2773 93.8656 31.724 93.8701 32.1113C93.8792 32.4987 93.9043 32.7949 93.9453 33H92.8174ZM100.74 33C100.777 32.7949 100.797 32.4987 100.802 32.1113C100.811 31.724 100.815 31.2773 100.815 30.7715V27.873C100.815 27.3717 100.811 26.9046 100.802 26.4717C100.797 26.0387 100.777 25.7197 100.74 25.5146C100.74 25.5146 100.936 25.5078 101.328 25.4941C101.72 25.4759 102.215 25.4668 102.812 25.4668C103.614 25.4668 104.263 25.6331 104.76 25.9658C105.257 26.2939 105.505 26.8271 105.505 27.5654C105.505 27.971 105.425 28.3174 105.266 28.6045C105.106 28.887 104.901 29.1172 104.65 29.2949C104.404 29.4681 104.142 29.5957 103.864 29.6777C103.591 29.7598 103.336 29.8008 103.099 29.8008H101.786V30.7715C101.786 31.2773 101.791 31.7262 101.8 32.1182C101.809 32.5055 101.832 32.7995 101.868 33H100.74ZM104.992 33L102.791 29.7461L103.584 29.3633C103.584 29.3633 103.641 29.443 103.755 29.6025C103.873 29.762 104.024 29.9694 104.206 30.2246C104.393 30.4753 104.593 30.7487 104.808 31.0449C105.026 31.3366 105.238 31.6214 105.443 31.8994C105.648 32.1729 105.828 32.4098 105.983 32.6104C106.138 32.8063 106.243 32.9362 106.298 33H104.992ZM101.786 29.001H102.764C103.342 29.001 103.782 28.8825 104.083 28.6455C104.384 28.404 104.534 28.0713 104.534 27.6475C104.534 27.2054 104.395 26.8682 104.117 26.6357C103.844 26.4033 103.393 26.2871 102.764 26.2871C102.581 26.2871 102.406 26.2894 102.237 26.2939C102.073 26.2985 101.923 26.3053 101.786 26.3145V29.001ZM107.426 33C107.462 32.7949 107.483 32.4987 107.487 32.1113C107.496 31.724 107.501 31.2773 107.501 30.7715V27.75C107.501 27.2441 107.496 26.7975 107.487 26.4102C107.483 26.0182 107.462 25.7197 107.426 25.5146H111.78V26.3623H108.472V28.6729H111.397V29.4932H108.472V32.1592H109.825C110.331 32.1592 110.757 32.1546 111.104 32.1455C111.454 32.1364 111.732 32.1136 111.938 32.0771V33H107.426ZM115.444 33.123C114.952 33.123 114.492 33.0592 114.063 32.9316C113.64 32.804 113.298 32.64 113.038 32.4395L113.271 31.3867C113.608 31.6784 113.959 31.8926 114.323 32.0293C114.692 32.166 115.066 32.2344 115.444 32.2344C115.859 32.2344 116.228 32.1204 116.552 31.8926C116.875 31.6647 117.037 31.3434 117.037 30.9287C117.037 30.7464 116.994 30.5778 116.907 30.4229C116.825 30.2633 116.652 30.1084 116.388 29.958C116.123 29.8076 115.725 29.6527 115.191 29.4932C114.658 29.3337 114.25 29.1536 113.968 28.9531C113.69 28.748 113.498 28.5225 113.394 28.2764C113.293 28.0257 113.243 27.7546 113.243 27.4629C113.243 27.1712 113.325 26.8659 113.489 26.5469C113.653 26.2279 113.913 25.9567 114.269 25.7334C114.624 25.5055 115.084 25.3916 115.649 25.3916C116.046 25.3916 116.399 25.4281 116.709 25.501C117.023 25.5739 117.347 25.6901 117.68 25.8496L117.475 26.8477C117.105 26.6471 116.782 26.5036 116.504 26.417C116.23 26.3304 115.93 26.2871 115.602 26.2871C115.191 26.2871 114.856 26.401 114.597 26.6289C114.341 26.8522 114.214 27.1051 114.214 27.3877C114.214 27.5745 114.253 27.7409 114.33 27.8867C114.412 28.028 114.574 28.1624 114.815 28.29C115.057 28.4176 115.422 28.5521 115.909 28.6934C116.588 28.8939 117.108 29.1605 117.468 29.4932C117.828 29.8258 118.008 30.2702 118.008 30.8262C118.008 31.2819 117.892 31.6829 117.659 32.0293C117.427 32.3757 117.117 32.6445 116.729 32.8359C116.342 33.0273 115.914 33.123 115.444 33.123ZM122.219 33.123C121.285 33.123 120.594 32.8724 120.147 32.3711C119.701 31.8652 119.478 31.1953 119.478 30.3613V27.75C119.478 27.2441 119.473 26.7975 119.464 26.4102C119.459 26.0182 119.439 25.7197 119.402 25.5146H120.448V30.1289C120.448 30.7988 120.574 31.3298 120.824 31.7217C121.079 32.1136 121.544 32.3096 122.219 32.3096C122.884 32.3096 123.34 32.1136 123.586 31.7217C123.837 31.3298 123.962 30.7988 123.962 30.1289V25.5146H125.015C124.983 25.7197 124.962 26.0114 124.953 26.3896C124.944 26.7633 124.939 27.2168 124.939 27.75V30.3613C124.939 31.1953 124.716 31.8652 124.27 32.3711C123.827 32.8724 123.144 33.123 122.219 33.123ZM130.012 33L127.421 25.5146H128.296L130.497 31.9541L132.732 25.5146H133.587L131.01 33H130.012ZM126.785 33C126.803 32.8542 126.824 32.6126 126.847 32.2754C126.869 31.9336 126.892 31.5348 126.915 31.0791C126.938 30.6188 126.958 30.1357 126.977 29.6299C126.999 29.124 127.02 28.6273 127.038 28.1396C127.061 27.652 127.079 27.2122 127.093 26.8203C127.106 26.4238 127.118 26.1071 127.127 25.8701C127.136 25.6331 127.141 25.5146 127.141 25.5146H128.036L127.893 26.8271L127.729 33H126.785ZM133.266 33L133.122 26.8271L132.958 25.5146H133.86C133.86 25.5146 133.863 25.6331 133.867 25.8701C133.876 26.1071 133.888 26.4238 133.901 26.8203C133.915 27.2122 133.931 27.652 133.949 28.1396C133.972 28.6273 133.993 29.124 134.011 29.6299C134.034 30.1357 134.056 30.6188 134.079 31.0791C134.102 31.5348 134.125 31.9336 134.147 32.2754C134.17 32.6126 134.193 32.8542 134.216 33H133.266ZM135.986 33C136.023 32.7949 136.043 32.4987 136.048 32.1113C136.057 31.724 136.062 31.2773 136.062 30.7715V27.75C136.062 27.2441 136.057 26.7975 136.048 26.4102C136.043 26.0182 136.023 25.7197 135.986 25.5146H140.341V26.3623H137.032V28.6729H139.958V29.4932H137.032V32.1592H138.386C138.892 32.1592 139.318 32.1546 139.664 32.1455C140.015 32.1364 140.293 32.1136 140.498 32.0771V33H135.986Z" fill="black"/>
<path d="M149.375 25C149.156 25 149 25.1719 149 25.375V28H147.625C147.344 28 147.203 28.3438 147.406 28.5469L149.781 30.9219C149.891 31.0312 150.094 31.0312 150.203 30.9219L152.578 28.5469C152.781 28.3438 152.641 28 152.359 28H151V25.375C151 25.1719 150.828 25 150.625 25H149.375ZM154 30.875C154 30.6719 153.828 30.5 153.625 30.5H151.328L150.562 31.2656C150.25 31.5938 149.734 31.5938 149.422 31.2656L148.656 30.5H146.375C146.156 30.5 146 30.6719 146 30.875V32.625C146 32.8438 146.156 33 146.375 33H153.625C153.828 33 154 32.8438 154 32.625V30.875ZM152.062 32.25C152.062 32.4219 151.922 32.5625 151.75 32.5625C151.578 32.5625 151.438 32.4219 151.438 32.25C151.438 32.0781 151.578 31.9375 151.75 31.9375C151.922 31.9375 152.062 32.0781 152.062 32.25ZM153.062 32.25C153.062 32.4219 152.922 32.5625 152.75 32.5625C152.578 32.5625 152.438 32.4219 152.438 32.25C152.438 32.0781 152.578 31.9375 152.75 31.9375C152.922 31.9375 153.062 32.0781 153.062 32.25Z" fill="black"/>
</svg>
