<svg width="98" height="98" viewBox="0 0 98 98" fill="none" xmlns="http://www.w3.org/2000/svg">
<rect x="47.8145" y="48.975" width="17.3241" height="2.07889" transform="rotate(-45 47.8145 48.975)" fill="white"/>
<path d="M35.3411 61.4484L47.5911 49.1984L49.0611 50.6684L36.8111 62.9184L35.3411 61.4484Z" fill="white"/>
<rect x="2.12132" y="49" width="66.2965" height="66.2965" transform="rotate(-45 2.12132 49)" stroke="white" stroke-width="3"/>
<path d="M53.9148 66C54.1231 65.5312 54.3367 65 54.5554 64.4062C54.7742 63.8021 55.0658 62.9479 55.4304 61.8438L59.7742 48.8906H63.946L68.2742 61.8438C68.6387 62.9375 68.9304 63.7865 69.1492 64.3906C69.3783 64.9948 69.5971 65.5312 69.8054 66H66.3679L65.071 61.8438H58.696L57.3992 66H53.9148ZM59.4617 59.3281H64.2742L61.8523 51.6094L59.4617 59.3281Z" fill="white"/>
<path d="M34.0525 48.631C33.4379 48.631 32.7452 48.532 31.9744 48.3341C31.2139 48.1257 30.6046 47.782 30.1462 47.3028L30.7244 44.2872C31.1514 44.7351 31.6671 45.0841 32.2712 45.3341C32.8858 45.5737 33.4848 45.6935 34.0681 45.6935C34.7556 45.6935 35.2712 45.5164 35.615 45.1622C35.9587 44.7976 36.1879 44.3185 36.3025 43.7247C36.4171 43.131 36.4744 42.4955 36.4744 41.8185V36.8653C36.4744 35.7195 36.4639 34.6518 36.4431 33.6622C36.4327 32.6726 36.3858 31.8653 36.3025 31.2403H39.8181C39.8181 31.2403 39.8181 31.4799 39.8181 31.9591C39.8181 32.4382 39.8181 33.0632 39.8181 33.8341C39.8181 34.5945 39.8181 35.4174 39.8181 36.3028C39.8181 37.1778 39.8181 38.0268 39.8181 38.8497C39.8181 39.6726 39.8181 40.3757 39.8181 40.9591C39.8181 41.5424 39.8181 41.9174 39.8181 42.0841C39.8181 44.4695 39.2869 46.157 38.2244 47.1466C37.1723 48.1362 35.7817 48.631 34.0525 48.631Z" fill="white"/>
</svg>
